<?xml version="1.0" encoding="UTF-8" standalone="no"?>
<!-- Created with Inkscape (http://www.inkscape.org/) -->

<svg
   xmlns:dc="http://purl.org/dc/elements/1.1/"
   xmlns:cc="http://creativecommons.org/ns#"
   xmlns:rdf="http://www.w3.org/1999/02/22-rdf-syntax-ns#"
   xmlns:svg="http://www.w3.org/2000/svg"
   xmlns="http://www.w3.org/2000/svg"
   xmlns:sodipodi="http://sodipodi.sourceforge.net/DTD/sodipodi-0.dtd"
   xmlns:inkscape="http://www.inkscape.org/namespaces/inkscape"
   width="16"
   height="16"
   viewBox="0 0 4.2333332 4.2333335"
   version="1.1"
   id="svg8"
   inkscape:version="0.92.0 r"
   sodipodi:docname="fixme.svg"
   inkscape:export-filename="/home/jjohansen/Development/Godot/Templates/Core/addons/todo/images/fixme.png"
   inkscape:export-xdpi="96"
   inkscape:export-ydpi="96">
  <defs
     id="defs2" />
  <sodipodi:namedview
     id="base"
     pagecolor="#000000"
     bordercolor="#666666"
     borderopacity="1.0"
     inkscape:pageopacity="0"
     inkscape:pageshadow="2"
     inkscape:zoom="16"
     inkscape:cx="5.5353823"
     inkscape:cy="4.6082155"
     inkscape:document-units="mm"
     inkscape:current-layer="layer1"
     showgrid="true"
     units="px"
     inkscape:pagecheckerboard="true"
     inkscape:window-width="792"
     inkscape:window-height="872"
     inkscape:window-x="2012"
     inkscape:window-y="0"
     inkscape:window-maximized="0"
     inkscape:snap-midpoints="true">
    <inkscape:grid
       type="xygrid"
       id="grid4485"
       dotted="true" />
  </sodipodi:namedview>
  <metadata
     id="metadata5">
    <rdf:RDF>
      <cc:Work
         rdf:about="">
        <dc:format>image/svg+xml</dc:format>
        <dc:type
           rdf:resource="http://purl.org/dc/dcmitype/StillImage" />
        <dc:title></dc:title>
      </cc:Work>
    </rdf:RDF>
  </metadata>
  <g
     inkscape:label="Layer 1"
     inkscape:groupmode="layer"
     id="layer1"
     transform="translate(0,-292.76665)">
    <g
       id="g6716"
       transform="translate(0,-1.1592361e-5)">
      <path
         id="rect6681"
         transform="matrix(0.26458333,0,0,0.26458333,0,292.76665)"
         d="M 6,2 C 5.0000001,2 4,3 4,3 L 3,4 4,5 5,4 H 6 V 4.875 C 6,4.94425 6.05575,5 6.125,5 H 7.5 v 4 h 1 V 5 H 9.875 C 9.94425,5 10,4.94425 10,4.875 V 4.5 h 1 V 4.75 5 H 11.25 12 12.75 C 12.8885,5 13,4.8885 13,4.75 V 2.25 C 13,2.1115 12.8885,2 12.75,2 H 12 11.25 11 V 2.25 2.5 H 10 V 2.125 C 10,2.05575 9.94425,2 9.875,2 H 7 6.125 Z"
         style="opacity:1;fill:#e6e6e6;fill-opacity:1;stroke:none;stroke-width:1.99999988;stroke-linecap:round;stroke-miterlimit:4;stroke-dasharray:none;stroke-dashoffset:0;stroke-opacity:0.50196078"
         inkscape:connector-curvature="0" />
      <rect
         ry="0.033072915"
         rx="0.033072915"
         y="294.88333"
         x="1.8520833"
         height="1.5875086"
         width="0.52916658"
         id="rect6687"
         style="opacity:1;fill:#5e88a8;fill-opacity:1;stroke:none;stroke-width:0.52916664;stroke-linecap:round;stroke-miterlimit:4;stroke-dasharray:none;stroke-dashoffset:0;stroke-opacity:0.50196078" />
    </g>
  </g>
</svg>
