<?xml version="1.0" encoding="UTF-8" standalone="no"?>
<!-- Created with Inkscape (http://www.inkscape.org/) -->

<svg
   xmlns:dc="http://purl.org/dc/elements/1.1/"
   xmlns:cc="http://creativecommons.org/ns#"
   xmlns:rdf="http://www.w3.org/1999/02/22-rdf-syntax-ns#"
   xmlns:svg="http://www.w3.org/2000/svg"
   xmlns="http://www.w3.org/2000/svg"
   xmlns:sodipodi="http://sodipodi.sourceforge.net/DTD/sodipodi-0.dtd"
   xmlns:inkscape="http://www.inkscape.org/namespaces/inkscape"
   width="16"
   height="16"
   viewBox="0 0 4.2333332 4.2333335"
   version="1.1"
   id="svg8"
   inkscape:version="0.92.0 r"
   sodipodi:docname="refresh.svg"
   inkscape:export-filename="/home/jjohansen/Development/Godot/Templates/Core/addons/todo/images/refresh.png"
   inkscape:export-xdpi="96"
   inkscape:export-ydpi="96">
  <defs
     id="defs2" />
  <sodipodi:namedview
     id="base"
     pagecolor="#ffffff"
     bordercolor="#666666"
     borderopacity="1.0"
     inkscape:pageopacity="0.0"
     inkscape:pageshadow="2"
     inkscape:zoom="15.136505"
     inkscape:cx="0.79150331"
     inkscape:cy="19.928717"
     inkscape:document-units="mm"
     inkscape:current-layer="layer1"
     showgrid="false"
     units="px"
     inkscape:pagecheckerboard="true"
     inkscape:window-width="1440"
     inkscape:window-height="874"
     inkscape:window-x="1366"
     inkscape:window-y="0"
     inkscape:window-maximized="1"
     inkscape:measure-start="14.0566,11.4961"
     inkscape:measure-end="15.3555,12.2461"
     inkscape:snap-center="false"
     inkscape:object-paths="false"
     inkscape:snap-intersection-paths="true"
     inkscape:snap-midpoints="true"
     inkscape:object-nodes="true"
     inkscape:snap-nodes="true"
     inkscape:snap-smooth-nodes="true">
    <inkscape:grid
       type="xygrid"
       id="grid4485"
       dotted="true" />
  </sodipodi:namedview>
  <metadata
     id="metadata5">
    <rdf:RDF>
      <cc:Work
         rdf:about="">
        <dc:format>image/svg+xml</dc:format>
        <dc:type
           rdf:resource="http://purl.org/dc/dcmitype/StillImage" />
        <dc:title />
      </cc:Work>
    </rdf:RDF>
  </metadata>
  <g
     inkscape:label="Layer 1"
     inkscape:groupmode="layer"
     id="layer1"
     transform="translate(0,-292.76665)">
    <path
       style="opacity:1;fill:#ffffff;fill-opacity:1;stroke:none;stroke-width:0.99999994;stroke-opacity:0.50196078"
       d="M 8.1894531 1.0058594 C 8.0507538 1.0036894 7.9120207 1.0056435 7.7734375 1.0117188 C 7.6620008 1.0142687 7.550641 1.0194788 7.4394531 1.0273438 C 7.3160476 1.0383977 7.1929574 1.0527245 7.0703125 1.0703125 C 6.9658064 1.0835845 6.8616132 1.0992125 6.7578125 1.1171875 C 6.634086 1.1399075 6.5109944 1.1659585 6.3886719 1.1953125 C 6.2720373 1.2222825 6.1561137 1.2522403 6.0410156 1.2851562 C 5.9188597 1.3215537 5.7977208 1.3612832 5.6777344 1.4042969 C 5.5766369 1.4391042 5.4763501 1.4762234 5.3769531 1.515625 C 5.2676758 1.5610537 5.1595682 1.6092463 5.0527344 1.6601562 C 4.9433402 1.7094522 4.8352315 1.7615528 4.7285156 1.8164062 C 4.6315339 1.8688253 4.5358041 1.9235281 4.4414062 1.9804688 C 4.3396004 2.0397765 4.2393079 2.1016452 4.140625 2.1660156 C 4.0364678 2.2361685 3.9342173 2.3091116 3.8339844 2.3847656 C 3.7465336 2.448519 3.6605729 2.514292 3.5761719 2.5820312 C 3.4843492 2.6578509 3.3944762 2.7360015 3.3066406 2.8164062 C 3.2200661 2.8930729 3.1354047 2.9718731 3.0527344 3.0527344 C 2.9718731 3.1354047 2.8930729 3.2200661 2.8164062 3.3066406 C 2.7360015 3.3944762 2.6578509 3.4843492 2.5820312 3.5761719 C 2.514292 3.6605729 2.448519 3.7465336 2.3847656 3.8339844 C 2.3091116 3.9342173 2.2361685 4.0364678 2.1660156 4.140625 C 2.1016452 4.2393079 2.0397765 4.3396004 1.9804688 4.4414062 C 1.9235281 4.5358041 1.8688253 4.6315339 1.8164062 4.7285156 C 1.7615528 4.8352315 1.7094522 4.9433402 1.6601562 5.0527344 C 1.6092463 5.1595682 1.5610537 5.2676758 1.515625 5.3769531 C 1.4762234 5.4763501 1.4391042 5.5766369 1.4042969 5.6777344 C 1.3612832 5.7977208 1.3215549 5.9188597 1.2851562 6.0410156 C 1.2569199 6.1400383 1.2308718 6.2396719 1.2070312 6.3398438 C 1.1755399 6.4653453 1.1475343 6.591696 1.1230469 6.71875 C 1.1034044 6.8303018 1.0864723 6.942314 1.0722656 7.0546875 C 1.0550771 7.1695476 1.0407498 7.2848176 1.0292969 7.4003906 C 1.0109613 7.5997495 1.0011867 7.7998032 1 8 C 1.0026 8.1460217 1.0097604 8.2919265 1.0214844 8.4375 C 1.0254044 8.532662 1.0312645 8.6277337 1.0390625 8.7226562 C 1.0537265 8.8389649 1.0713109 8.9548869 1.0917969 9.0703125 C 1.1075939 9.1899213 1.1264795 9.3091018 1.1484375 9.4277344 C 1.1700085 9.5199974 1.193452 9.6118135 1.21875 9.703125 C 1.24995 9.8375994 1.285122 9.9711211 1.3242188 10.103516 C 1.3538057 10.189406 1.3850618 10.274705 1.4179688 10.359375 C 1.4645777 10.495676 1.5153838 10.630506 1.5703125 10.763672 C 1.6237055 10.881759 1.6803684 10.99834 1.7402344 11.113281 C 1.7801854 11.198751 1.8218604 11.283403 1.8652344 11.367188 C 1.9380364 11.495892 2.0148975 11.622258 2.0957031 11.746094 C 2.1430061 11.824524 2.1918431 11.902008 2.2421875 11.978516 C 2.3022465 12.061236 2.3641101 12.142641 2.4277344 12.222656 C 2.5067284 12.330452 2.5887933 12.435965 2.6738281 12.539062 C 2.7331291 12.605312 2.7936869 12.67043 2.8554688 12.734375 C 2.9499757 12.840185 3.0476767 12.943097 3.1484375 13.042969 C 3.2380785 13.126749 3.3299074 13.208157 3.4238281 13.287109 C 3.5042201 13.359309 3.5862735 13.429643 3.6699219 13.498047 C 3.7682739 13.572297 3.8685691 13.643936 3.9707031 13.712891 C 4.0615601 13.780221 4.1540349 13.845349 4.2480469 13.908203 C 4.3506538 13.970773 4.454855 14.030687 4.5605469 14.087891 C 4.6549829 14.143521 4.7507126 14.196917 4.8476562 14.248047 C 4.9836358 14.314357 5.1217292 14.376236 5.2617188 14.433594 C 5.3347327 14.466754 5.4083114 14.498667 5.4824219 14.529297 C 5.6291582 14.583737 5.7776792 14.633247 5.9277344 14.677734 C 6.0002614 14.702364 6.073188 14.725807 6.1464844 14.748047 C 6.2706735 14.780127 6.3957207 14.808774 6.5214844 14.833984 C 6.6399772 14.861174 6.7591584 14.88527 6.8789062 14.90625 C 6.9847137 14.9217 7.0908614 14.934733 7.1972656 14.945312 C 7.3251366 14.961872 7.4534408 14.974905 7.5820312 14.984375 C 7.6321392 14.986875 7.6822721 14.988734 7.7324219 14.990234 C 7.8762478 14.995334 8.0201964 14.995887 8.1640625 14.992188 C 8.2807273 14.989288 8.3973002 14.983389 8.5136719 14.974609 C 8.6330936 14.965909 8.7522734 14.954233 8.8710938 14.939453 C 8.9782269 14.925653 9.0850265 14.909375 9.1914062 14.890625 C 9.3164045 14.869265 9.4407994 14.844516 9.5644531 14.816406 C 9.6712005 14.791556 9.7773495 14.764205 9.8828125 14.734375 C 9.9976065 14.702785 10.111576 14.668265 10.224609 14.630859 C 10.336944 14.593329 10.448308 14.552949 10.558594 14.509766 C 10.660501 14.469176 10.761441 14.426196 10.861328 14.380859 C 10.980731 14.327529 11.098616 14.270868 11.214844 14.210938 C 11.303084 14.165278 11.390345 14.117738 11.476562 14.068359 C 11.587079 14.004939 11.695843 13.938503 11.802734 13.869141 C 11.900034 13.806421 11.99577 13.741296 12.089844 13.673828 C 12.181324 13.607648 12.271198 13.539273 12.359375 13.46875 C 12.451105 13.3955 12.540976 13.319956 12.628906 13.242188 C 12.718186 13.163698 12.805456 13.082939 12.890625 13 C 12.971345 12.92119 13.05014 12.840434 13.126953 12.757812 C 13.208733 12.668743 13.288182 12.577563 13.365234 12.484375 C 13.438344 12.397575 13.509325 12.309004 13.578125 12.21875 C 13.648195 12.12541 13.71593 12.030325 13.78125 11.933594 C 13.84683 11.837524 13.909996 11.73984 13.970703 11.640625 C 13.999273 11.592785 14.027268 11.544605 14.054688 11.496094 L 12.326172 10.498047 C 11.434211 12.044581 9.7853176 12.998185 8 13 C 5.2385762 13 2.9999998 10.761424 3 8 C 2.9999998 5.2385762 5.2385762 2.9999998 8 3 C 9.7850224 3.00291 11.433104 3.9572238 12.324219 5.5039062 L 11.025391 6.2539062 L 15.355469 8.7539062 L 15.355469 3.7539062 L 14.056641 4.5039062 C 14.005174 4.415507 13.951775 4.3282464 13.896484 4.2421875 C 13.833875 4.1422507 13.76875 4.043912 13.701172 3.9472656 C 13.639896 3.8625276 13.576729 3.7791734 13.511719 3.6972656 C 13.433713 3.5961161 13.352954 3.4971207 13.269531 3.4003906 C 13.196553 3.3185645 13.121663 3.2384642 13.044922 3.1601562 C 12.963139 3.0727294 12.879127 2.9874148 12.792969 2.9042969 C 12.702661 2.8211499 12.610181 2.7403928 12.515625 2.6621094 C 12.435148 2.5925399 12.353095 2.524814 12.269531 2.4589844 C 12.169298 2.3833304 12.067048 2.3103873 11.962891 2.2402344 C 11.869397 2.174768 11.774317 2.1115981 11.677734 2.0507812 C 11.58525 1.994578 11.491475 1.940527 11.396484 1.8886719 C 11.2874 1.8271181 11.176683 1.7685033 11.064453 1.7128906 C 10.961449 1.6634725 10.857252 1.6165835 10.751953 1.5722656 C 10.646904 1.5266995 10.540752 1.4837178 10.433594 1.4433594 C 10.314918 1.3997567 10.195082 1.3593773 10.074219 1.3222656 C 9.9752736 1.2907559 9.8756396 1.2614518 9.7753906 1.234375 C 9.6524765 1.203023 9.5287329 1.1750179 9.4042969 1.1503906 C 9.2967304 1.1270109 9.1886274 1.1061718 9.0800781 1.0878906 C 8.9645527 1.0713227 8.8486311 1.0576466 8.7324219 1.046875 C 8.6012694 1.0314371 8.4697063 1.0197136 8.3378906 1.0117188 C 8.2884336 1.0092388 8.2389516 1.0072888 8.1894531 1.0058594 z "
       transform="matrix(0.26458333,0,0,0.26458333,0,292.76665)"
       id="path4522" />
  </g>
</svg>
